ply
format ascii 1.0
comment Created by Blender 2.65 (sub 0) - www.blender.org, source file: 'testmap.blend'
element vertex 288
property float x
property float y
property float z
property float nx
property float ny
property float nz
property float s
property float t
element face 72
property list uchar uint vertex_indices
end_header
-0.978480 -5.691761 -4.135763 -1.000000 0.000000 -0.000000 0.555216 0.444445
-0.978480 -7.691761 -4.135763 -1.000000 0.000000 -0.000000 0.555556 0.555216
-0.978480 -7.691761 -2.135763 -1.000000 0.000000 -0.000000 0.444784 0.555556
-0.978480 -5.691761 -2.135763 -1.000000 0.000000 -0.000000 0.444445 0.444784
-0.978480 -5.691761 -2.135763 0.000000 1.000000 -0.000000 0.222222 0.111451
1.021520 -5.691761 -2.135763 0.000000 1.000000 -0.000000 0.332994 0.111111
1.021520 -5.691761 -4.135763 0.000000 1.000000 -0.000000 0.333333 0.221882
-0.978480 -5.691761 -4.135763 0.000000 1.000000 -0.000000 0.222562 0.222222
1.021520 -5.691761 -2.135763 1.000000 0.000000 -0.000000 0.888889 0.667007
1.021520 -7.691761 -2.135763 1.000000 0.000000 -0.000000 0.888549 0.777778
1.021520 -7.691761 -4.135763 1.000000 0.000000 -0.000000 0.777778 0.777438
1.021520 -5.691761 -4.135763 1.000000 0.000000 -0.000000 0.778118 0.666667
-0.978480 -7.691761 -4.135763 0.000000 -1.000000 -0.000000 0.110771 0.666667
1.021520 -7.691761 -4.135763 0.000000 -1.000000 -0.000000 0.111111 0.777438
1.021520 -7.691761 -2.135763 0.000000 -1.000000 -0.000000 0.000340 0.777778
-0.978480 -7.691761 -2.135763 0.000000 -1.000000 -0.000000 0.000000 0.667007
-0.978480 -7.691761 -4.135763 -0.000000 0.000000 -1.000000 1.000000 0.777438
-0.978480 -5.691761 -4.135763 -0.000000 0.000000 -1.000000 0.889229 0.777778
1.021520 -5.691761 -4.135763 -0.000000 0.000000 -1.000000 0.888889 0.667007
1.021520 -7.691761 -4.135763 -0.000000 0.000000 -1.000000 0.999660 0.666667
1.021520 -7.691761 -2.135763 -0.000000 0.000000 1.000000 0.777778 0.111451
1.021520 -5.691761 -2.135763 -0.000000 0.000000 1.000000 0.888549 0.111111
-0.978480 -5.691761 -2.135763 -0.000000 0.000000 1.000000 0.888889 0.221882
-0.978480 -7.691761 -2.135763 -0.000000 0.000000 1.000000 0.778118 0.222222
-0.969291 -7.241313 -1.975716 -1.000000 0.000000 0.000000 0.111451 0.333333
-0.969291 -5.241313 -1.975716 -1.000000 0.000000 0.000000 0.111111 0.222562
-0.969291 -5.241313 -3.975716 -1.000000 0.000000 0.000000 0.221882 0.222222
-0.969291 -7.241313 -3.975716 -1.000000 0.000000 0.000000 0.222222 0.332994
-0.969291 -5.241313 -1.975716 0.000000 1.000000 -0.000000 0.888889 0.555216
1.030709 -5.241313 -1.975716 0.000000 1.000000 -0.000000 0.889229 0.444445
1.030709 -5.241313 -3.975716 0.000000 1.000000 -0.000000 1.000000 0.444784
-0.969291 -5.241313 -3.975716 0.000000 1.000000 -0.000000 0.999660 0.555556
1.030709 -5.241313 -1.975716 1.000000 0.000000 -0.000000 0.444444 0.888549
1.030709 -7.241313 -1.975716 1.000000 0.000000 -0.000000 0.333673 0.888889
1.030709 -7.241313 -3.975716 1.000000 0.000000 -0.000000 0.333333 0.778118
1.030709 -5.241313 -3.975716 1.000000 0.000000 -0.000000 0.444105 0.777778
1.030709 -7.241313 -1.975716 0.000000 -1.000000 0.000000 0.555896 0.888889
-0.969291 -7.241313 -1.975716 0.000000 -1.000000 0.000000 0.555556 0.778118
-0.969291 -7.241313 -3.975716 0.000000 -1.000000 0.000000 0.666327 0.777778
1.030709 -7.241313 -3.975716 0.000000 -1.000000 0.000000 0.666667 0.888549
-0.969291 -7.241313 -3.975716 -0.000000 0.000000 -1.000000 1.000000 0.221882
-0.969291 -5.241313 -3.975716 -0.000000 0.000000 -1.000000 0.889229 0.222222
1.030709 -5.241313 -3.975716 -0.000000 0.000000 -1.000000 0.888889 0.111451
1.030709 -7.241313 -3.975716 -0.000000 0.000000 -1.000000 0.999660 0.111111
1.030709 -7.241313 -1.975716 -0.000000 0.000000 1.000000 0.888889 0.666327
1.030709 -5.241313 -1.975716 -0.000000 0.000000 1.000000 0.889229 0.555556
-0.969291 -5.241313 -1.975716 -0.000000 0.000000 1.000000 1.000000 0.555896
-0.969291 -7.241313 -1.975716 -0.000000 0.000000 1.000000 0.999660 0.666667
-0.923991 -6.772534 -1.735645 -1.000000 0.000000 0.000000 0.667007 0.888889
-0.923991 -4.772534 -1.735645 -1.000000 0.000000 0.000000 0.666667 0.778118
-0.923991 -4.772534 -3.735645 -1.000000 0.000000 0.000000 0.777438 0.777778
-0.923991 -6.772534 -3.735645 -1.000000 0.000000 0.000000 0.777778 0.888549
-0.923991 -4.772534 -1.735645 0.000000 1.000000 -0.000000 0.555216 0.333333
1.076009 -4.772534 -1.735645 0.000000 1.000000 -0.000000 0.444445 0.332994
1.076009 -4.772534 -3.735645 0.000000 1.000000 -0.000000 0.444784 0.222222
-0.923991 -4.772534 -3.735645 0.000000 1.000000 -0.000000 0.555556 0.222562
1.076009 -4.772534 -1.735645 1.000000 0.000000 -0.000000 0.667007 0.333333
1.076009 -6.772534 -1.735645 1.000000 0.000000 -0.000000 0.666667 0.222562
1.076009 -6.772534 -3.735645 1.000000 0.000000 -0.000000 0.777438 0.222222
1.076009 -4.772534 -3.735645 1.000000 0.000000 -0.000000 0.777778 0.332994
1.076009 -6.772534 -1.735645 0.000000 -1.000000 0.000000 0.555895 0.777778
-0.923991 -6.772534 -1.735645 0.000000 -1.000000 0.000000 0.555556 0.667007
-0.923991 -6.772534 -3.735645 0.000000 -1.000000 0.000000 0.666327 0.666667
1.076009 -6.772534 -3.735645 0.000000 -1.000000 0.000000 0.666667 0.777438
-0.923991 -6.772534 -3.735645 -0.000000 0.000000 -1.000000 0.999660 0.444445
-0.923991 -4.772534 -3.735645 -0.000000 0.000000 -1.000000 0.888889 0.444105
1.076009 -4.772534 -3.735645 -0.000000 0.000000 -1.000000 0.889229 0.333334
1.076009 -6.772534 -3.735645 -0.000000 0.000000 -1.000000 1.000000 0.333673
1.076009 -6.772534 -1.735645 -0.000000 0.000000 1.000000 0.888889 0.778118
1.076009 -4.772534 -1.735645 -0.000000 0.000000 1.000000 0.999660 0.777778
-0.923991 -4.772534 -1.735645 -0.000000 0.000000 1.000000 1.000000 0.888549
-0.923991 -6.772534 -1.735645 -0.000000 0.000000 1.000000 0.889229 0.888889
-1.000000 -1.000000 1.000000 -1.000000 0.000000 0.000000 0.666667 0.332994
-1.000000 1.000000 1.000000 -1.000000 0.000000 0.000000 0.555895 0.333333
-1.000000 1.000000 -1.000000 -1.000000 0.000000 0.000000 0.555556 0.222562
-1.000000 -1.000000 -1.000000 -1.000000 0.000000 0.000000 0.666327 0.222222
-1.000000 1.000000 1.000000 0.000000 1.000000 -0.000000 0.110771 0.333333
1.000000 1.000000 1.000000 0.000000 1.000000 -0.000000 0.000000 0.332994
1.000000 1.000000 -1.000000 0.000000 1.000000 -0.000000 0.000340 0.222222
-1.000000 1.000000 -1.000000 0.000000 1.000000 -0.000000 0.111111 0.222562
1.000000 1.000000 1.000000 1.000000 0.000000 -0.000000 0.444445 0.555216
1.000000 -1.000000 1.000000 1.000000 0.000000 -0.000000 0.333673 0.555556
1.000000 -1.000000 -1.000000 1.000000 0.000000 -0.000000 0.333333 0.444784
1.000000 1.000000 -1.000000 1.000000 0.000000 -0.000000 0.444105 0.444445
1.000000 -1.000000 1.000000 0.000000 -1.000000 0.000000 0.333673 0.777778
-1.000000 -1.000000 1.000000 0.000000 -1.000000 0.000000 0.333333 0.667007
-1.000000 -1.000000 -1.000000 0.000000 -1.000000 0.000000 0.444105 0.666667
1.000000 -1.000000 -1.000000 0.000000 -1.000000 0.000000 0.444445 0.777438
-1.000000 -1.000000 -1.000000 -0.000000 0.000000 -1.000000 0.222562 0.444445
-1.000000 1.000000 -1.000000 -0.000000 0.000000 -1.000000 0.222222 0.333673
1.000000 1.000000 -1.000000 -0.000000 0.000000 -1.000000 0.332994 0.333333
1.000000 -1.000000 -1.000000 -0.000000 0.000000 -1.000000 0.333333 0.444105
1.000000 -1.000000 1.000000 -0.000000 0.000000 1.000000 0.000000 0.778118
1.000000 1.000000 1.000000 -0.000000 0.000000 1.000000 0.110771 0.777778
-1.000000 1.000000 1.000000 -0.000000 0.000000 1.000000 0.111111 0.888549
-1.000000 -1.000000 1.000000 -0.000000 0.000000 1.000000 0.000340 0.888889
-0.975973 -1.887846 0.399052 -1.000000 0.000000 0.000000 0.222562 0.333333
-0.975973 0.112154 0.399052 -1.000000 0.000000 0.000000 0.222222 0.222562
-0.975973 0.112154 -1.600948 -1.000000 0.000000 0.000000 0.332994 0.222222
-0.975973 -1.887846 -1.600948 -1.000000 0.000000 0.000000 0.333333 0.332994
-0.975973 0.112154 0.399052 0.000000 1.000000 -0.000000 0.111111 0.333673
1.024027 0.112154 0.399052 0.000000 1.000000 -0.000000 0.221882 0.333333
1.024027 0.112154 -1.600948 0.000000 1.000000 -0.000000 0.222222 0.444105
-0.975973 0.112154 -1.600948 0.000000 1.000000 -0.000000 0.111451 0.444445
1.024027 0.112154 0.399052 1.000000 0.000000 -0.000000 0.778118 0.333333
1.024027 -1.887846 0.399052 1.000000 0.000000 -0.000000 0.777778 0.222562
1.024027 -1.887846 -1.600948 1.000000 0.000000 -0.000000 0.888549 0.222222
1.024027 0.112154 -1.600948 1.000000 0.000000 -0.000000 0.888889 0.332994
1.024027 -1.887846 0.399052 0.000000 -1.000000 0.000000 0.444445 0.333673
-0.975973 -1.887846 0.399052 0.000000 -1.000000 0.000000 0.555216 0.333333
-0.975973 -1.887846 -1.600948 0.000000 -1.000000 0.000000 0.555556 0.444105
1.024027 -1.887846 -1.600948 0.000000 -1.000000 0.000000 0.444784 0.444445
-0.975973 -1.887846 -1.600948 -0.000000 0.000000 -1.000000 0.555556 0.778118
-0.975973 0.112154 -1.600948 -0.000000 0.000000 -1.000000 0.555216 0.888889
1.024027 0.112154 -1.600948 -0.000000 0.000000 -1.000000 0.444445 0.888549
1.024027 -1.887846 -1.600948 -0.000000 0.000000 -1.000000 0.444784 0.777778
1.024027 -1.887846 0.399052 -0.000000 0.000000 1.000000 0.555216 0.555556
1.024027 0.112154 0.399052 -0.000000 0.000000 1.000000 0.555556 0.666327
-0.975973 0.112154 0.399052 -0.000000 0.000000 1.000000 0.444784 0.666667
-0.975973 -1.887846 0.399052 -0.000000 0.000000 1.000000 0.444445 0.555896
-0.976184 -2.671484 -0.261991 -1.000000 0.000000 0.000000 0.222222 0.666327
-0.976184 -0.671484 -0.261991 -1.000000 0.000000 0.000000 0.111451 0.666667
-0.976184 -0.671484 -2.261991 -1.000000 0.000000 0.000000 0.111111 0.555896
-0.976184 -2.671484 -2.261991 -1.000000 0.000000 0.000000 0.221882 0.555556
-0.976184 -0.671484 -0.261991 0.000000 1.000000 -0.000000 0.332994 0.666667
1.023816 -0.671484 -0.261991 0.000000 1.000000 -0.000000 0.222222 0.666327
1.023816 -0.671484 -2.261991 0.000000 1.000000 -0.000000 0.222562 0.555556
-0.976184 -0.671484 -2.261991 0.000000 1.000000 -0.000000 0.333333 0.555896
1.023816 -0.671484 -0.261991 1.000000 0.000000 -0.000000 0.667007 0.555556
1.023816 -2.671484 -0.261991 1.000000 0.000000 -0.000000 0.666667 0.444784
1.023816 -2.671484 -2.261991 1.000000 0.000000 -0.000000 0.777438 0.444445
1.023816 -0.671484 -2.261991 1.000000 0.000000 -0.000000 0.777778 0.555216
1.023816 -2.671484 -0.261991 0.000000 -1.000000 0.000000 0.222222 0.667007
-0.976184 -2.671484 -0.261991 0.000000 -1.000000 0.000000 0.332994 0.666667
-0.976184 -2.671484 -2.261991 0.000000 -1.000000 0.000000 0.333333 0.777438
1.023816 -2.671484 -2.261991 0.000000 -1.000000 0.000000 0.222562 0.777778
-0.976184 -2.671484 -2.261991 -0.000000 0.000000 -1.000000 0.888889 0.778118
-0.976184 -0.671484 -2.261991 -0.000000 0.000000 -1.000000 0.888549 0.888889
1.023816 -0.671484 -2.261991 -0.000000 0.000000 -1.000000 0.777778 0.888549
1.023816 -2.671484 -2.261991 -0.000000 0.000000 -1.000000 0.778118 0.777778
1.023816 -2.671484 -0.261991 -0.000000 0.000000 1.000000 0.555216 0.000000
1.023816 -0.671484 -0.261991 -0.000000 0.000000 1.000000 0.555556 0.110771
-0.976184 -0.671484 -0.261991 -0.000000 0.000000 1.000000 0.444784 0.111111
-0.976184 -2.671484 -0.261991 -0.000000 0.000000 1.000000 0.444445 0.000340
-0.979681 -3.163643 -0.697678 -1.000000 0.000000 0.000000 0.000340 0.222222
-0.979681 -1.163643 -0.697678 -1.000000 0.000000 0.000000 0.000000 0.111451
-0.979681 -1.163643 -2.697678 -1.000000 0.000000 0.000000 0.110771 0.111111
-0.979681 -3.163643 -2.697678 -1.000000 0.000000 0.000000 0.111111 0.221883
-0.979681 -1.163643 -0.697678 0.000000 1.000000 -0.000000 0.666327 0.555556
1.020319 -1.163643 -0.697678 0.000000 1.000000 -0.000000 0.555556 0.555216
1.020319 -1.163643 -2.697678 0.000000 1.000000 -0.000000 0.555895 0.444445
-0.979681 -1.163643 -2.697678 0.000000 1.000000 -0.000000 0.666667 0.444784
1.020319 -1.163643 -0.697678 1.000000 0.000000 -0.000000 0.667007 0.444445
1.020319 -3.163643 -0.697678 1.000000 0.000000 -0.000000 0.666667 0.333673
1.020319 -3.163643 -2.697678 1.000000 0.000000 -0.000000 0.777438 0.333333
1.020319 -1.163643 -2.697678 1.000000 0.000000 -0.000000 0.777778 0.444105
1.020319 -3.163643 -0.697678 0.000000 -1.000000 0.000000 0.667007 0.111111
-0.979681 -3.163643 -0.697678 0.000000 -1.000000 0.000000 0.666667 0.000340
-0.979681 -3.163643 -2.697678 0.000000 -1.000000 0.000000 0.777438 0.000000
1.020319 -3.163643 -2.697678 0.000000 -1.000000 0.000000 0.777778 0.110771
-0.979681 -3.163643 -2.697678 -0.000000 0.000000 -1.000000 0.555895 0.666667
-0.979681 -1.163643 -2.697678 -0.000000 0.000000 -1.000000 0.555556 0.555896
1.020319 -1.163643 -2.697678 -0.000000 0.000000 -1.000000 0.666327 0.555556
1.020319 -3.163643 -2.697678 -0.000000 0.000000 -1.000000 0.666667 0.666327
1.020319 -3.163643 -0.697678 -0.000000 0.000000 1.000000 0.666667 0.667007
1.020319 -1.163643 -0.697678 -0.000000 0.000000 1.000000 0.777438 0.666667
-0.979681 -1.163643 -0.697678 -0.000000 0.000000 1.000000 0.777778 0.777438
-0.979681 -3.163643 -0.697678 -0.000000 0.000000 1.000000 0.667007 0.777778
-0.933427 -3.695029 -0.862939 -1.000000 0.000000 0.000000 0.444784 0.777778
-0.933427 -1.695029 -0.862939 -1.000000 0.000000 0.000000 0.444445 0.667007
-0.933427 -1.695029 -2.862939 -1.000000 0.000000 0.000000 0.555216 0.666667
-0.933427 -3.695029 -2.862939 -1.000000 0.000000 0.000000 0.555556 0.777438
-0.933427 -1.695029 -0.862939 0.000000 1.000000 -0.000000 0.111451 0.555556
1.066573 -1.695029 -0.862939 0.000000 1.000000 -0.000000 0.111111 0.444784
1.066573 -1.695029 -2.862939 0.000000 1.000000 -0.000000 0.221882 0.444445
-0.933427 -1.695029 -2.862939 0.000000 1.000000 -0.000000 0.222222 0.555216
1.066573 -1.695029 -0.862939 1.000000 0.000000 -0.000000 0.222562 0.555556
1.066573 -3.695029 -0.862939 1.000000 0.000000 -0.000000 0.222222 0.444784
1.066573 -3.695029 -2.862939 1.000000 0.000000 -0.000000 0.332994 0.444445
1.066573 -1.695029 -2.862939 1.000000 0.000000 -0.000000 0.333333 0.555216
1.066573 -3.695029 -0.862939 0.000000 -1.000000 0.000000 0.333333 0.111451
-0.933427 -3.695029 -0.862939 0.000000 -1.000000 0.000000 0.444105 0.111111
-0.933427 -3.695029 -2.862939 0.000000 -1.000000 0.000000 0.444445 0.221883
1.066573 -3.695029 -2.862939 0.000000 -1.000000 0.000000 0.333673 0.222222
-0.933427 -3.695029 -2.862939 -0.000000 0.000000 -1.000000 0.444445 0.555896
-0.933427 -1.695029 -2.862939 -0.000000 0.000000 -1.000000 0.444105 0.666667
1.066573 -1.695029 -2.862939 -0.000000 0.000000 -1.000000 0.333333 0.666327
1.066573 -3.695029 -2.862939 -0.000000 0.000000 -1.000000 0.333673 0.555556
1.066573 -3.695029 -0.862939 -0.000000 0.000000 1.000000 0.222222 0.778118
1.066573 -1.695029 -0.862939 -0.000000 0.000000 1.000000 0.332994 0.777778
-0.933427 -1.695029 -0.862939 -0.000000 0.000000 1.000000 0.333333 0.888549
-0.933427 -3.695029 -0.862939 -0.000000 0.000000 1.000000 0.222562 0.888889
-0.875759 -4.255569 -0.983129 -1.000000 0.000000 0.000000 0.888889 0.444105
-0.875759 -2.255569 -0.983129 -1.000000 0.000000 0.000000 0.778118 0.444445
-0.875759 -2.255569 -2.983129 -1.000000 0.000000 0.000000 0.777778 0.333673
-0.875759 -4.255569 -2.983129 -1.000000 0.000000 0.000000 0.888549 0.333333
-0.875759 -2.255569 -0.983129 0.000000 1.000000 -0.000000 0.555556 0.110771
1.124241 -2.255569 -0.983129 0.000000 1.000000 -0.000000 0.555895 0.000000
1.124241 -2.255569 -2.983129 0.000000 1.000000 -0.000000 0.666667 0.000340
-0.875759 -2.255569 -2.983129 0.000000 1.000000 -0.000000 0.666327 0.111111
1.124241 -2.255569 -0.983129 1.000000 0.000000 -0.000000 0.667007 0.666667
1.124241 -4.255569 -0.983129 1.000000 0.000000 -0.000000 0.666667 0.555896
1.124241 -4.255569 -2.983129 1.000000 0.000000 -0.000000 0.777438 0.555556
1.124241 -2.255569 -2.983129 1.000000 0.000000 -0.000000 0.777778 0.666327
1.124241 -4.255569 -0.983129 0.000000 -1.000000 0.000000 0.778118 0.555556
-0.875759 -4.255569 -0.983129 0.000000 -1.000000 0.000000 0.777778 0.444784
-0.875759 -4.255569 -2.983129 0.000000 -1.000000 0.000000 0.888549 0.444445
1.124241 -4.255569 -2.983129 0.000000 -1.000000 0.000000 0.888889 0.555216
-0.875759 -4.255569 -2.983129 -0.000000 0.000000 -1.000000 0.222222 0.888549
-0.875759 -2.255569 -2.983129 -0.000000 0.000000 -1.000000 0.111451 0.888889
1.124241 -2.255569 -2.983129 -0.000000 0.000000 -1.000000 0.111111 0.778118
1.124241 -4.255569 -2.983129 -0.000000 0.000000 -1.000000 0.221882 0.777778
1.124241 -4.255569 -0.983129 -0.000000 0.000000 1.000000 0.110771 0.333333
1.124241 -2.255569 -0.983129 -0.000000 0.000000 1.000000 0.111111 0.444105
-0.875759 -2.255569 -0.983129 -0.000000 0.000000 1.000000 0.000340 0.444445
-0.875759 -4.255569 -0.983129 -0.000000 0.000000 1.000000 0.000000 0.333673
-0.827423 -4.802033 -1.148389 -1.000000 0.000000 0.000000 0.444784 0.222222
-0.827423 -2.802033 -1.148389 -1.000000 0.000000 0.000000 0.444445 0.111451
-0.827423 -2.802033 -3.148389 -1.000000 0.000000 0.000000 0.555216 0.111111
-0.827423 -4.802033 -3.148389 -1.000000 0.000000 0.000000 0.555556 0.221882
-0.827423 -2.802033 -1.148389 0.000000 1.000000 -0.000000 0.333673 0.333333
1.172577 -2.802033 -1.148389 0.000000 1.000000 -0.000000 0.333333 0.222562
1.172577 -2.802033 -3.148389 0.000000 1.000000 -0.000000 0.444105 0.222222
-0.827423 -2.802033 -3.148389 0.000000 1.000000 -0.000000 0.444444 0.332994
1.172577 -2.802033 -1.148389 1.000000 0.000000 -0.000000 0.777778 0.221882
1.172577 -4.802033 -1.148389 1.000000 0.000000 -0.000000 0.667006 0.222222
1.172577 -4.802033 -3.148389 1.000000 0.000000 -0.000000 0.666667 0.111451
1.172577 -2.802033 -3.148389 1.000000 0.000000 -0.000000 0.777438 0.111111
1.172577 -4.802033 -1.148389 0.000000 -1.000000 0.000000 0.000000 0.444784
-0.827423 -4.802033 -1.148389 0.000000 -1.000000 0.000000 0.110771 0.444445
-0.827423 -4.802033 -3.148389 0.000000 -1.000000 0.000000 0.111111 0.555216
1.172577 -4.802033 -3.148389 0.000000 -1.000000 0.000000 0.000340 0.555556
-0.827423 -4.802033 -3.148389 -0.000000 0.000000 -1.000000 0.333673 0.111111
-0.827423 -2.802033 -3.148389 -0.000000 0.000000 -1.000000 0.333333 0.000340
1.172577 -2.802033 -3.148389 -0.000000 0.000000 -1.000000 0.444105 0.000000
1.172577 -4.802033 -3.148389 -0.000000 0.000000 -1.000000 0.444445 0.110771
1.172577 -4.802033 -1.148389 -0.000000 0.000000 1.000000 0.666327 0.333333
1.172577 -2.802033 -1.148389 -0.000000 0.000000 1.000000 0.666667 0.444105
-0.827423 -2.802033 -1.148389 -0.000000 0.000000 1.000000 0.555895 0.444445
-0.827423 -4.802033 -1.148389 -0.000000 0.000000 1.000000 0.555556 0.333673
-0.789494 -5.273109 -1.313650 -1.000000 0.000000 0.000000 0.111451 0.111111
-0.789494 -3.273109 -1.313650 -1.000000 0.000000 0.000000 0.111111 0.000340
-0.789494 -3.273109 -3.313650 -1.000000 0.000000 0.000000 0.221882 0.000000
-0.789494 -5.273109 -3.313650 -1.000000 0.000000 0.000000 0.222222 0.110771
-0.789494 -3.273109 -1.313650 0.000000 1.000000 -0.000000 0.221882 0.222222
1.210506 -3.273109 -1.313650 0.000000 1.000000 -0.000000 0.111111 0.221882
1.210506 -3.273109 -3.313650 0.000000 1.000000 -0.000000 0.111451 0.111111
-0.789494 -3.273109 -3.313650 0.000000 1.000000 -0.000000 0.222222 0.111451
1.210506 -3.273109 -1.313650 1.000000 0.000000 -0.000000 0.778118 0.666667
1.210506 -5.273109 -1.313650 1.000000 0.000000 -0.000000 0.777778 0.555896
1.210506 -5.273109 -3.313650 1.000000 0.000000 -0.000000 0.888549 0.555556
1.210506 -3.273109 -3.313650 1.000000 0.000000 -0.000000 0.888889 0.666327
1.210506 -5.273109 -1.313650 0.000000 -1.000000 0.000000 0.222222 0.000340
-0.789494 -5.273109 -1.313650 0.000000 -1.000000 0.000000 0.332994 0.000000
-0.789494 -5.273109 -3.313650 0.000000 -1.000000 0.000000 0.333333 0.110771
1.210506 -5.273109 -3.313650 0.000000 -1.000000 0.000000 0.222562 0.111111
-0.789494 -5.273109 -3.313650 -0.000000 0.000000 -1.000000 0.999660 0.111111
-0.789494 -3.273109 -3.313650 -0.000000 0.000000 -1.000000 0.888889 0.110771
1.210506 -3.273109 -3.313650 -0.000000 0.000000 -1.000000 0.889229 0.000000
1.210506 -5.273109 -3.313650 -0.000000 0.000000 -1.000000 1.000000 0.000340
1.210506 -5.273109 -1.313650 -0.000000 0.000000 1.000000 0.888889 0.222562
1.210506 -3.273109 -1.313650 -0.000000 0.000000 1.000000 0.999660 0.222222
-0.789494 -3.273109 -1.313650 -0.000000 0.000000 1.000000 1.000000 0.332994
-0.789494 -5.273109 -1.313650 -0.000000 0.000000 1.000000 0.889229 0.333333
-0.927755 -6.054630 -1.518438 -1.000000 0.000000 0.000000 0.111111 0.666327
-0.927755 -4.054630 -1.518438 -1.000000 0.000000 0.000000 0.000340 0.666667
-0.927755 -4.054630 -3.518438 -1.000000 0.000000 0.000000 0.000000 0.555896
-0.927755 -6.054630 -3.518438 -1.000000 0.000000 0.000000 0.110771 0.555556
-0.927755 -4.054630 -1.518438 0.000000 1.000000 -0.000000 0.555556 0.221882
1.072245 -4.054630 -1.518438 0.000000 1.000000 -0.000000 0.555895 0.111111
1.072245 -4.054630 -3.518438 0.000000 1.000000 -0.000000 0.666667 0.111451
-0.927755 -4.054630 -3.518438 0.000000 1.000000 -0.000000 0.666327 0.222222
1.072245 -4.054630 -1.518438 1.000000 0.000000 -0.000000 0.000340 0.111111
1.072245 -6.054630 -1.518438 1.000000 0.000000 -0.000000 0.000000 0.000340
1.072245 -6.054630 -3.518438 1.000000 0.000000 -0.000000 0.110771 0.000000
1.072245 -4.054630 -3.518438 1.000000 0.000000 -0.000000 0.111111 0.110771
1.072245 -6.054630 -1.518438 0.000000 -1.000000 0.000000 0.333333 0.333673
-0.927755 -6.054630 -1.518438 0.000000 -1.000000 0.000000 0.444105 0.333333
-0.927755 -6.054630 -3.518438 0.000000 -1.000000 0.000000 0.444445 0.444105
1.072245 -6.054630 -3.518438 0.000000 -1.000000 0.000000 0.333673 0.444445
-0.927755 -6.054630 -3.518438 -0.000000 0.000000 -1.000000 0.111451 0.777778
-0.927755 -4.054630 -3.518438 -0.000000 0.000000 -1.000000 0.111111 0.667007
1.072245 -4.054630 -3.518438 -0.000000 0.000000 -1.000000 0.221882 0.666667
1.072245 -6.054630 -3.518438 -0.000000 0.000000 -1.000000 0.222222 0.777438
1.072245 -6.054630 -1.518438 -0.000000 0.000000 1.000000 0.777778 0.000340
1.072245 -4.054630 -1.518438 -0.000000 0.000000 1.000000 0.888549 0.000000
-0.927755 -4.054630 -1.518438 -0.000000 0.000000 1.000000 0.888889 0.110771
-0.927755 -6.054630 -1.518438 -0.000000 0.000000 1.000000 0.778118 0.111111
4 0 1 2 3
4 4 5 6 7
4 8 9 10 11
4 12 13 14 15
4 16 17 18 19
4 20 21 22 23
4 24 25 26 27
4 28 29 30 31
4 32 33 34 35
4 36 37 38 39
4 40 41 42 43
4 44 45 46 47
4 48 49 50 51
4 52 53 54 55
4 56 57 58 59
4 60 61 62 63
4 64 65 66 67
4 68 69 70 71
4 72 73 74 75
4 76 77 78 79
4 80 81 82 83
4 84 85 86 87
4 88 89 90 91
4 92 93 94 95
4 96 97 98 99
4 100 101 102 103
4 104 105 106 107
4 108 109 110 111
4 112 113 114 115
4 116 117 118 119
4 120 121 122 123
4 124 125 126 127
4 128 129 130 131
4 132 133 134 135
4 136 137 138 139
4 140 141 142 143
4 144 145 146 147
4 148 149 150 151
4 152 153 154 155
4 156 157 158 159
4 160 161 162 163
4 164 165 166 167
4 168 169 170 171
4 172 173 174 175
4 176 177 178 179
4 180 181 182 183
4 184 185 186 187
4 188 189 190 191
4 192 193 194 195
4 196 197 198 199
4 200 201 202 203
4 204 205 206 207
4 208 209 210 211
4 212 213 214 215
4 216 217 218 219
4 220 221 222 223
4 224 225 226 227
4 228 229 230 231
4 232 233 234 235
4 236 237 238 239
4 240 241 242 243
4 244 245 246 247
4 248 249 250 251
4 252 253 254 255
4 256 257 258 259
4 260 261 262 263
4 264 265 266 267
4 268 269 270 271
4 272 273 274 275
4 276 277 278 279
4 280 281 282 283
4 284 285 286 287
